<svg width="19" height="18" viewBox="0 0 19 18" fill="none" xmlns="http://www.w3.org/2000/svg">
<g clip-path="url(#clip0_0_9585)">
<path d="M17.4032 9.72231H1.59677C1.3722 9.72231 1.15682 9.6331 0.998014 9.4743C0.839213 9.3155 0.75 9.10012 0.75 8.87554C0.75 8.65096 0.839213 8.43558 0.998014 8.27678C1.15682 8.11798 1.3722 8.02876 1.59677 8.02876H17.4032C17.6278 8.02876 17.8432 8.11798 18.002 8.27678C18.1608 8.43558 18.25 8.65096 18.25 8.87554C18.25 9.10012 18.1608 9.3155 18.002 9.4743C17.8432 9.6331 17.6278 9.72231 17.4032 9.72231Z" fill="#1E293B"/>
<path d="M17.4032 4.64167H1.59677C1.3722 4.64167 1.15682 4.55245 0.998014 4.39365C0.839213 4.23485 0.75 4.01947 0.75 3.79489C0.75 3.57032 0.839213 3.35494 0.998014 3.19613C1.15682 3.03733 1.3722 2.94812 1.59677 2.94812H17.4032C17.6278 2.94812 17.8432 3.03733 18.002 3.19613C18.1608 3.35494 18.25 3.57032 18.25 3.79489C18.25 4.01947 18.1608 4.23485 18.002 4.39365C17.8432 4.55245 17.6278 4.64167 17.4032 4.64167Z" fill="#1E293B"/>
<path d="M17.4032 14.803H1.59677C1.3722 14.803 1.15682 14.7137 0.998014 14.5549C0.839213 14.3961 0.75 14.1808 0.75 13.9562C0.75 13.7316 0.839213 13.5162 0.998014 13.3574C1.15682 13.1986 1.3722 13.1094 1.59677 13.1094H17.4032C17.6278 13.1094 17.8432 13.1986 18.002 13.3574C18.1608 13.5162 18.25 13.7316 18.25 13.9562C18.25 14.1808 18.1608 14.3961 18.002 14.5549C17.8432 14.7137 17.6278 14.803 17.4032 14.803Z" fill="#1E293B"/>
</g>
<defs>
<clipPath id="clip0_0_9585">
<rect width="17.5" height="17.5" fill="white" transform="translate(0.75 0.12554)"/>
</clipPath>
</defs>
</svg>
