<svg width="22" height="22" viewBox="0 0 22 22" fill="none" xmlns="http://www.w3.org/2000/svg">
<g clip-path="url(#clip0_17_7465)">
<path d="M13.2976 9.5135H1.39286C1.15606 9.5135 0.928955 9.41943 0.761512 9.25199C0.594068 9.08454 0.5 8.85744 0.5 8.62064C0.5 8.38384 0.594068 8.15674 0.761512 7.9893C0.928955 7.82185 1.15606 7.72778 1.39286 7.72778H13.2976C13.5344 7.72778 13.7615 7.82185 13.929 7.9893C14.0964 8.15674 14.1905 8.38384 14.1905 8.62064C14.1905 8.85744 14.0964 9.08454 13.929 9.25199C13.7615 9.41943 13.5344 9.5135 13.2976 9.5135Z" fill="#6366F1"/>
<path d="M20.607 4.7516H1.55936C1.32256 4.7516 1.09546 4.65753 0.928016 4.49008C0.760573 4.32264 0.666504 4.09554 0.666504 3.85874C0.666504 3.62194 0.760573 3.39484 0.928016 3.22739C1.09546 3.05995 1.32256 2.96588 1.55936 2.96588H20.607C20.8438 2.96588 21.0709 3.05995 21.2383 3.22739C21.4058 3.39484 21.4998 3.62194 21.4998 3.85874C21.4998 4.09554 21.4058 4.32264 21.2383 4.49008C21.0709 4.65753 20.8438 4.7516 20.607 4.7516Z" fill="#6366F1"/>
<path d="M20.607 14.2754H1.55936C1.32256 14.2754 1.09546 14.1813 0.928016 14.0139C0.760573 13.8464 0.666504 13.6193 0.666504 13.3825C0.666504 13.1457 0.760573 12.9186 0.928016 12.7512C1.09546 12.5838 1.32256 12.4897 1.55936 12.4897H20.607C20.8438 12.4897 21.0709 12.5838 21.2383 12.7512C21.4058 12.9186 21.4998 13.1457 21.4998 13.3825C21.4998 13.6193 21.4058 13.8464 21.2383 14.0139C21.0709 14.1813 20.8438 14.2754 20.607 14.2754Z" fill="#6366F1"/>
<path d="M13.2976 19.0373H1.39286C1.15606 19.0373 0.928955 18.9432 0.761512 18.7758C0.594068 18.6083 0.5 18.3812 0.5 18.1444C0.5 17.9076 0.594068 17.6805 0.761512 17.5131C0.928955 17.3457 1.15606 17.2516 1.39286 17.2516H13.2976C13.5344 17.2516 13.7615 17.3457 13.929 17.5131C14.0964 17.6805 14.1905 17.9076 14.1905 18.1444C14.1905 18.3812 14.0964 18.6083 13.929 18.7758C13.7615 18.9432 13.5344 19.0373 13.2976 19.0373Z" fill="#6366F1"/>
</g>
<defs>
<clipPath id="clip0_17_7465">
<rect width="21" height="21" fill="white" transform="translate(0.5 0.501587)"/>
</clipPath>
</defs>
</svg>
