<svg width="22" height="20" viewBox="0 0 22 20" fill="none" xmlns="http://www.w3.org/2000/svg">
<path d="M19.4 3.70369H14.9V2.20369C14.8569 1.60823 14.5807 1.05379 14.1314 0.660647C13.6821 0.267508 13.0959 0.0673823 12.5 0.103689H9.5C8.90409 0.0673823 8.31789 0.267508 7.86859 0.660647C7.41929 1.05379 7.14312 1.60823 7.1 2.20369V3.70369H2.6C2.04402 3.70684 1.5117 3.9291 1.11856 4.32224C0.725411 4.71539 0.50315 5.2477 0.5 5.80369V17.8037C0.50315 18.3597 0.725411 18.892 1.11856 19.2851C1.5117 19.6783 2.04402 19.9005 2.6 19.9037H19.4C19.956 19.9005 20.4883 19.6783 20.8814 19.2851C21.2746 18.892 21.4969 18.3597 21.5 17.8037V5.80369C21.4969 5.2477 21.2746 4.71539 20.8814 4.32224C20.4883 3.9291 19.956 3.70684 19.4 3.70369ZM8.9 2.20369C8.9 2.10769 9.128 1.90369 9.5 1.90369H12.5C12.872 1.90369 13.1 2.10769 13.1 2.20369V3.70369H8.9V2.20369ZM2.6 5.50369H19.4C19.4796 5.50369 19.5559 5.5353 19.6121 5.59156C19.6684 5.64782 19.7 5.72412 19.7 5.80369V9.70369H2.3V5.80369C2.3 5.72412 2.33161 5.64782 2.38787 5.59156C2.44413 5.5353 2.52044 5.50369 2.6 5.50369ZM7.1 11.5037H14.9V13.3037H7.1V11.5037ZM19.4 18.1037H2.6C2.52044 18.1037 2.44413 18.0721 2.38787 18.0158C2.33161 17.9596 2.3 17.8833 2.3 17.8037V11.5037H5.3V14.2037C5.30311 14.4414 5.39893 14.6685 5.56704 14.8366C5.73515 15.0048 5.96227 15.1006 6.2 15.1037H15.8C16.0377 15.1006 16.2648 15.0048 16.433 14.8366C16.6011 14.6685 16.6969 14.4414 16.7 14.2037V11.5037H19.7V17.8037C19.7 17.8833 19.6684 17.9596 19.6121 18.0158C19.5559 18.0721 19.4796 18.1037 19.4 18.1037Z" fill="#6366F1"/>
</svg>
