<svg width="11" height="13" viewBox="0 0 11 13" fill="none" xmlns="http://www.w3.org/2000/svg">
<path d="M8.85022 1.64221H8.01266V0.804658C8.01266 0.671378 7.95972 0.543556 7.86547 0.449313C7.77123 0.355069 7.64341 0.302124 7.51013 0.302124C7.37685 0.302124 7.24903 0.355069 7.15478 0.449313C7.06054 0.543556 7.0076 0.671378 7.0076 0.804658V1.64221H3.99239V0.804658C3.99239 0.671378 3.93945 0.543556 3.8452 0.449313C3.75096 0.355069 3.62314 0.302124 3.48986 0.302124C3.35658 0.302124 3.22876 0.355069 3.13451 0.449313C3.04027 0.543556 2.98732 0.671378 2.98732 0.804658V1.64221H2.14977C1.66107 1.64221 1.1924 1.83635 0.846836 2.18191C0.501277 2.52747 0.307144 2.99614 0.307144 3.48484V10.8553C0.307144 11.344 0.501277 11.8127 0.846836 12.1583C1.1924 12.5038 1.66107 12.698 2.14977 12.698H8.85022C9.33891 12.698 9.80759 12.5038 10.1532 12.1583C10.4987 11.8127 10.6928 11.344 10.6928 10.8553V3.48484C10.6928 2.99614 10.4987 2.52747 10.1532 2.18191C9.80759 1.83635 9.33891 1.64221 8.85022 1.64221ZM2.14977 2.64728H2.98732V3.48484C2.98732 3.61812 3.04027 3.74594 3.13451 3.84018C3.22876 3.93443 3.35658 3.98737 3.48986 3.98737C3.62314 3.98737 3.75096 3.93443 3.8452 3.84018C3.93945 3.74594 3.99239 3.61812 3.99239 3.48484V2.64728H7.0076V3.48484C7.0076 3.61812 7.06054 3.74594 7.15478 3.84018C7.24903 3.93443 7.37685 3.98737 7.51013 3.98737C7.64341 3.98737 7.77123 3.93443 7.86547 3.84018C7.95972 3.74594 8.01266 3.61812 8.01266 3.48484V2.64728H8.85022C9.07235 2.64728 9.28539 2.73552 9.44246 2.8926C9.59953 3.04967 9.68778 3.2627 9.68778 3.48484V5.32746H1.31221V3.48484C1.31221 3.2627 1.40045 3.04967 1.55753 2.8926C1.7146 2.73552 1.92763 2.64728 2.14977 2.64728ZM8.85022 11.6929H2.14977C1.92763 11.6929 1.7146 11.6046 1.55753 11.4476C1.40045 11.2905 1.31221 11.0775 1.31221 10.8553V6.33253H9.68778V10.8553C9.68778 11.0775 9.59953 11.2905 9.44246 11.4476C9.28539 11.6046 9.07235 11.6929 8.85022 11.6929Z" fill="#909090"/>
</svg>
