<svg width="29" height="27" viewBox="0 0 29 27" fill="none" xmlns="http://www.w3.org/2000/svg">
<path d="M27.3957 19.914C27.2596 19.914 24.2039 19.3694 24.2039 10.4597C24.2039 4.16684 20.5432 0.248962 14.4924 0.248962C8.44165 0.248962 4.78093 4.16684 4.78093 10.4597C4.78093 19.5358 1.61939 19.914 1.63452 19.914C1.33363 19.914 1.04506 20.0335 0.832294 20.2463C0.619529 20.4591 0.5 20.7476 0.5 21.0485C0.5 21.3494 0.619529 21.638 0.832294 21.8508C1.04506 22.0635 1.33363 22.1831 1.63452 22.1831H8.94084C9.19337 23.4699 9.88511 24.629 10.8978 25.4623C11.9104 26.2955 13.1811 26.7511 14.4924 26.7511C15.8038 26.7511 17.0745 26.2955 18.0871 25.4623C19.0998 24.629 19.7915 23.4699 20.044 22.1831H27.3655C27.6664 22.1831 27.9549 22.0635 28.1677 21.8508C28.3805 21.638 28.5 21.3494 28.5 21.0485C28.5 20.7476 28.3805 20.4591 28.1677 20.2463C27.9549 20.0335 27.6664 19.914 27.3655 19.914H27.3957ZM14.4924 24.4521C13.791 24.4508 13.1073 24.2318 12.5356 23.8254C11.9639 23.4189 11.5324 22.8451 11.3006 22.1831H17.6842C17.4525 22.8451 17.021 23.4189 16.4493 23.8254C15.8776 24.2318 15.1939 24.4508 14.4924 24.4521ZM5.05321 19.914C6.14236 18.2652 7.04997 15.3759 7.04997 10.4597C7.04997 5.5434 9.77283 2.51801 14.4924 2.51801C19.212 2.51801 21.9349 5.40726 21.9349 10.4597C21.9349 15.5121 22.8425 18.2652 23.9317 19.914H5.05321Z" fill="#6C757D"/>
</svg>
