<svg width="30" height="30" viewBox="0 0 30 30" fill="none" xmlns="http://www.w3.org/2000/svg">
<rect width="30" height="30" rx="15" fill="#5CC277"/>
<path fill-rule="evenodd" clip-rule="evenodd" d="M9.28617 24.6803C11.0163 25.7048 12.9893 26.2468 15 26.25H16.1625C17.6869 26.0944 19.161 25.6172 20.4875 24.85C22.4237 23.7836 24.0028 22.1704 25.0276 20.2118C26.0525 18.2533 26.4776 16.0363 26.25 13.8375C26.2377 13.7087 26.2001 13.5835 26.1394 13.4692C26.0788 13.3548 25.9961 13.2536 25.8963 13.1712C25.7965 13.0887 25.6814 13.0268 25.5577 12.9889C25.4339 12.9509 25.3039 12.9377 25.175 12.95C25.0462 12.9624 24.921 12.9999 24.8066 13.0606C24.6923 13.1213 24.591 13.2039 24.5086 13.3037C24.4262 13.4036 24.3643 13.5186 24.3263 13.6424C24.2884 13.7662 24.2752 13.8962 24.2875 14.025C24.4211 15.2517 24.3087 16.4927 23.9567 17.6754C23.6046 18.8581 23.0202 19.9586 22.2375 20.9125C21.4773 21.849 20.5436 22.6299 19.4875 23.2125C18.3913 23.819 17.1838 24.1974 15.9375 24.325C14.7108 24.4587 13.4698 24.3462 12.2872 23.9942C11.1045 23.6422 10.004 23.0577 9.05001 22.275C8.11358 21.5149 7.33264 20.5811 6.75001 19.525C6.14355 18.4289 5.76513 17.2213 5.63751 15.975C5.50388 14.7484 5.61636 13.5074 5.96837 12.3247C6.32038 11.142 6.90484 10.0415 7.68751 9.08755C8.44769 8.15112 9.38143 7.37018 10.4375 6.78755C11.5337 6.18108 12.7413 5.80266 13.9875 5.67505C15.2483 5.54096 16.5233 5.65995 17.7375 6.02505C17.8585 6.07434 17.9884 6.09781 18.1189 6.09397C18.2495 6.09013 18.3778 6.05905 18.4956 6.00273C18.6134 5.94641 18.7182 5.86609 18.8032 5.76692C18.8882 5.66775 18.9515 5.55191 18.9891 5.42684C19.0267 5.30177 19.0378 5.17022 19.0216 5.04062C19.0054 4.91103 18.9623 4.78624 18.8951 4.67427C18.8278 4.5623 18.738 4.46562 18.6312 4.39041C18.5244 4.3152 18.4031 4.26314 18.275 4.23755C16.8399 3.79658 15.3302 3.65198 13.8375 3.81255C12.3392 3.95752 10.8875 4.41303 9.57501 5.15005C7.64115 6.21826 6.06461 7.83223 5.04207 9.79063C4.01953 11.749 3.59624 13.9651 3.82501 16.1625C3.96998 17.6609 4.42549 19.1125 5.16251 20.425C6.1321 22.1865 7.55605 23.6559 9.28617 24.6803ZM12.5 18.7501C12.6595 18.9319 12.8838 19.0441 13.125 19.0626C13.3662 19.0441 13.5905 18.9319 13.75 18.7501L25 7.50005C25.0836 7.32511 25.1108 7.12857 25.078 6.93749C25.0453 6.74641 24.954 6.57019 24.817 6.43311C24.6799 6.29602 24.5036 6.20481 24.3126 6.17202C24.1215 6.13924 23.925 6.1665 23.75 6.25005L13.0875 16.8375L10 13.7501C9.82507 13.6665 9.62852 13.6392 9.43745 13.672C9.24637 13.7048 9.07015 13.796 8.93307 13.9331C8.79598 14.0702 8.70476 14.2464 8.67198 14.4375C8.6392 14.6286 8.66646 14.8251 8.75001 15.0001L12.5 18.7501Z" fill="#F6F9FC"/>
</svg>
