<svg width="22" height="22" viewBox="0 0 22 22" fill="none" xmlns="http://www.w3.org/2000/svg">
<path d="M15.5967 5.89158L9.90341 8.22491C9.51275 8.37921 9.15792 8.61207 8.86092 8.90908C8.56391 9.20609 8.33104 9.56091 8.17675 9.95158L5.84341 15.6449C5.80509 15.7424 5.80689 15.8511 5.84842 15.9473C5.88995 16.0434 5.96784 16.1193 6.06508 16.1582C6.15918 16.1931 6.26265 16.1931 6.35675 16.1582L12.0501 13.8249C12.4407 13.6706 12.7956 13.4377 13.0926 13.1407C13.3896 12.8437 13.6224 12.4889 13.7767 12.0982L16.1101 6.40491C16.1484 6.30742 16.1466 6.19872 16.1051 6.10255C16.0635 6.00637 15.9857 5.93053 15.8884 5.89158C15.7943 5.85674 15.6908 5.85674 15.5967 5.89158ZM11.0001 12.1682C10.7693 12.1682 10.5438 12.0998 10.3519 11.9716C10.1601 11.8434 10.0105 11.6612 9.92222 11.448C9.83392 11.2349 9.81081 11.0003 9.85583 10.774C9.90085 10.5477 10.012 10.3398 10.1751 10.1766C10.3383 10.0135 10.5462 9.90234 10.7725 9.85733C10.9988 9.81231 11.2334 9.83542 11.4465 9.92372C11.6597 10.012 11.8419 10.1616 11.9701 10.3534C12.0983 10.5453 12.1667 10.7708 12.1667 11.0016C12.1667 11.311 12.0438 11.6077 11.825 11.8265C11.6062 12.0453 11.3095 12.1682 11.0001 12.1682Z" fill="#6366F1"/>
<path d="M11 21.5016C8.9233 21.5016 6.89323 20.8858 5.16652 19.732C3.4398 18.5783 2.09399 16.9384 1.29927 15.0198C0.504549 13.1011 0.296615 10.9899 0.701759 8.95314C1.1069 6.91634 2.10693 5.04542 3.57538 3.57697C5.04383 2.10852 6.91475 1.10849 8.95156 0.703346C10.9884 0.298201 13.0996 0.506136 15.0182 1.30086C16.9368 2.09558 18.5767 3.44139 19.7304 5.1681C20.8842 6.89482 21.5 8.92489 21.5 11.0016C21.5 13.7864 20.3938 16.4571 18.4246 18.4262C16.4555 20.3953 13.7848 21.5016 11 21.5016ZM11 2.25159C9.26942 2.25159 7.57769 2.76477 6.13876 3.72623C4.69983 4.68769 3.57832 6.05426 2.91606 7.65311C2.25379 9.25196 2.08051 11.0113 2.41813 12.7086C2.75575 14.406 3.58911 15.9651 4.81282 17.1888C6.03653 18.4125 7.59563 19.2458 9.29296 19.5835C10.9903 19.9211 12.7496 19.7478 14.3485 19.0855C15.9473 18.4233 17.3139 17.3018 18.2754 15.8628C19.2368 14.4239 19.75 12.7322 19.75 11.0016C19.75 8.68095 18.8281 6.45535 17.1872 4.81441C15.5462 3.17346 13.3206 2.25159 11 2.25159Z" fill="#6366F1"/>
</svg>
