<svg width="30" height="30" viewBox="0 0 30 30" fill="none" xmlns="http://www.w3.org/2000/svg">
<rect width="30" height="30" rx="15" fill="#B81A2A"/>
<path d="M25.0029 24.6708H4.99713C4.83327 24.6703 4.67232 24.6275 4.52991 24.5464C4.3875 24.4653 4.26848 24.3488 4.18439 24.2082C4.10446 24.0648 4.0625 23.9034 4.0625 23.7393C4.0625 23.5752 4.10446 23.4138 4.18439 23.2704L14.1873 5.7654C14.2762 5.63128 14.397 5.52126 14.5388 5.44516C14.6806 5.36905 14.8391 5.32922 15 5.32922C15.1609 5.32922 15.3194 5.36905 15.4612 5.44516C15.603 5.52126 15.7238 5.63128 15.8127 5.7654L25.8156 23.2704C25.8955 23.4138 25.9375 23.5752 25.9375 23.7393C25.9375 23.9034 25.8955 24.0648 25.8156 24.2082C25.7315 24.3488 25.6125 24.4653 25.4701 24.5464C25.3277 24.6275 25.1667 24.6703 25.0029 24.6708ZM6.61009 22.7953H23.3899L15 8.11607L6.61009 22.7953Z" fill="#F6F9FC"/>
<path d="M14.9999 17.7938C14.7522 17.7906 14.5156 17.6907 14.3404 17.5156C14.1652 17.3404 14.0654 17.1038 14.0622 16.856V12.4798C14.0622 12.2311 14.161 11.9926 14.3368 11.8167C14.5127 11.6408 14.7512 11.542 14.9999 11.542C15.2486 11.542 15.4872 11.6408 15.663 11.8167C15.8389 11.9926 15.9377 12.2311 15.9377 12.4798V16.856C15.9345 17.1038 15.8346 17.3404 15.6595 17.5156C15.4843 17.6907 15.2476 17.7906 14.9999 17.7938Z" fill="#F6F9FC"/>
<path d="M14.9999 21.5449C14.7522 21.5417 14.5156 21.4418 14.3404 21.2666C14.1652 21.0915 14.0654 20.8548 14.0622 20.6071V19.9819C14.0622 19.7332 14.161 19.4947 14.3368 19.3188C14.5127 19.143 14.7512 19.0442 14.9999 19.0442C15.2486 19.0442 15.4872 19.143 15.663 19.3188C15.8389 19.4947 15.9377 19.7332 15.9377 19.9819V20.6071C15.9345 20.8548 15.8346 21.0915 15.6595 21.2666C15.4843 21.4418 15.2476 21.5417 14.9999 21.5449Z" fill="#F6F9FC"/>
</svg>
