<svg width="22" height="22" viewBox="0 0 22 22" fill="none" xmlns="http://www.w3.org/2000/svg">
<g clip-path="url(#clip0_17_7474)">
<path d="M18.4927 21.5016H3.54324C3.1265 21.4846 2.71719 21.3858 2.33876 21.2107C1.96032 21.0356 1.62017 20.7877 1.33778 20.4811C1.05538 20.1746 0.836285 19.8155 0.693022 19.4244C0.549758 19.0332 0.485141 18.6177 0.502866 18.2016V14.6016C0.502866 14.3629 0.597824 14.134 0.76685 13.9652C0.935876 13.7964 1.16512 13.7016 1.40416 13.7016C1.6432 13.7016 1.87245 13.7964 2.04148 13.9652C2.2105 14.134 2.30546 14.3629 2.30546 14.6016V18.2016C2.27443 18.5579 2.38194 18.9125 2.60569 19.1918C2.82944 19.471 3.15225 19.6536 3.50719 19.7016H18.4927C18.8477 19.6536 19.1705 19.471 19.3942 19.1918C19.618 18.9125 19.7255 18.5579 19.6945 18.2016V14.6016C19.6945 14.3629 19.7894 14.134 19.9585 13.9652C20.1275 13.7964 20.3567 13.7016 20.5958 13.7016C20.8348 13.7016 21.0641 13.7964 21.2331 13.9652C21.4021 14.134 21.4971 14.3629 21.4971 14.6016V18.2016C21.533 19.036 21.2376 19.8509 20.6749 20.4689C20.1123 21.0869 19.328 21.4581 18.4927 21.5016Z" fill="#6366F1"/>
<path d="M11.0182 15.5016C10.8998 15.5021 10.7825 15.4791 10.6731 15.4337C10.5637 15.3884 10.4645 15.3217 10.3813 15.2376L5.57442 10.4376C5.41521 10.267 5.32854 10.0413 5.33266 9.80814C5.33678 9.57497 5.43137 9.35251 5.5965 9.18762C5.76164 9.02272 5.98442 8.92827 6.21792 8.92415C6.45141 8.92004 6.67739 9.00659 6.84825 9.16556L11.0182 13.3296L15.1882 9.16556C15.3591 9.00659 15.5851 8.92004 15.8186 8.92415C16.0521 8.92827 16.2749 9.02272 16.44 9.18762C16.6051 9.35251 16.6997 9.57497 16.7038 9.80814C16.708 10.0413 16.6213 10.267 16.4621 10.4376L11.6552 15.2376C11.5719 15.3217 11.4727 15.3884 11.3634 15.4337C11.254 15.4791 11.1367 15.5021 11.0182 15.5016Z" fill="#6366F1"/>
<path d="M11.018 15.5016C10.7799 15.4985 10.5525 15.4027 10.3841 15.2345C10.2158 15.0664 10.1198 14.8393 10.1167 14.6016V1.40159C10.1167 1.16289 10.2117 0.933973 10.3807 0.765191C10.5497 0.596408 10.779 0.501587 11.018 0.501587C11.257 0.501587 11.4863 0.596408 11.6553 0.765191C11.8243 0.933973 11.9193 1.16289 11.9193 1.40159V14.6016C11.9162 14.8393 11.8202 15.0664 11.6519 15.2345C11.4835 15.4027 11.2561 15.4985 11.018 15.5016Z" fill="#6366F1"/>
</g>
<defs>
<clipPath id="clip0_17_7474">
<rect width="21" height="21" fill="white" transform="translate(0.5 0.501587)"/>
</clipPath>
</defs>
</svg>
