<svg width="22" height="22" viewBox="0 0 22 22" fill="none" xmlns="http://www.w3.org/2000/svg">
<g clip-path="url(#clip0_17_7401)">
<path d="M20.6263 10.7012C20.4311 10.7021 20.2411 10.6388 20.0856 10.521L11.0137 3.7201L1.94188 10.521C1.75068 10.6644 1.51034 10.726 1.27373 10.6922C1.03713 10.6584 0.823643 10.5319 0.680239 10.3407C0.536835 10.1495 0.47526 9.90919 0.509061 9.67259C0.542862 9.43598 0.669269 9.2225 0.860474 9.07909L10.473 1.86969C10.629 1.7527 10.8187 1.68945 11.0137 1.68945C11.2087 1.68945 11.3984 1.7527 11.5544 1.86969L21.167 9.07909C21.3415 9.22081 21.4567 9.42263 21.49 9.64494C21.5234 9.86724 21.4724 10.094 21.3472 10.2807C21.2706 10.4044 21.1648 10.5075 21.0391 10.5808C20.9134 10.6541 20.7717 10.6955 20.6263 10.7012Z" fill="#6366F1"/>
<path d="M18.2233 20.3138H3.8045C3.56646 20.3106 3.33904 20.2147 3.17071 20.0464C3.00238 19.878 2.90643 19.6506 2.90332 19.4126V7.99768C2.90332 7.75868 2.99827 7.52946 3.16727 7.36046C3.33627 7.19145 3.56549 7.09651 3.8045 7.09651C4.0435 7.09651 4.27272 7.19145 4.44172 7.36046C4.61073 7.52946 4.70567 7.75868 4.70567 7.99768V18.5114H17.3221V7.99768C17.3221 7.75868 17.4171 7.52946 17.5861 7.36046C17.7551 7.19145 17.9843 7.09651 18.2233 7.09651C18.4623 7.09651 18.6915 7.19145 18.8605 7.36046C19.0295 7.52946 19.1245 7.75868 19.1245 7.99768V19.4126C19.1214 19.6506 19.0254 19.878 18.8571 20.0464C18.6888 20.2147 18.4613 20.3106 18.2233 20.3138Z" fill="#6366F1"/>
<path d="M13.4169 20.3137C13.1789 20.3106 12.9515 20.2147 12.7831 20.0464C12.6148 19.878 12.5189 19.6506 12.5157 19.4126V11.9028H9.51182V19.4126C9.51182 19.6516 9.41688 19.8808 9.24788 20.0498C9.07887 20.2188 8.84965 20.3137 8.61065 20.3137C8.37164 20.3137 8.14242 20.2188 7.97342 20.0498C7.80442 19.8808 7.70947 19.6516 7.70947 19.4126V11.0016C7.71258 10.7636 7.80853 10.5361 7.97686 10.3678C8.1452 10.1995 8.37261 10.1035 8.61065 10.1004H13.4169C13.655 10.1035 13.8824 10.1995 14.0507 10.3678C14.219 10.5361 14.315 10.7636 14.3181 11.0016V19.4126C14.315 19.6506 14.219 19.878 14.0507 20.0464C13.8824 20.2147 13.655 20.3106 13.4169 20.3137Z" fill="#6366F1"/>
</g>
<defs>
<clipPath id="clip0_17_7401">
<rect width="21" height="21" fill="white" transform="translate(0.5 0.501602)"/>
</clipPath>
</defs>
</svg>
