<svg width="22" height="22" viewBox="0 0 22 22" fill="none" xmlns="http://www.w3.org/2000/svg">
<g clip-path="url(#clip0_17_7424)">
<path d="M15.4296 10.1222L13.9858 9.7941L15.1146 11.3954V16.3697L18.9602 13.1672V7.72035L17.1883 8.35035L15.4296 10.1222Z" fill="#6366F1"/>
<path d="M6.4525 10.1222L4.68063 8.35035L2.92188 7.72035V13.1672L6.7675 16.3697V11.3954L7.89625 9.7941L6.4525 10.1222Z" fill="#6366F1"/>
<path d="M12.5423 10.2798H9.33981L8.53918 9.79413L7.25293 11.7235V18.9423L8.21105 20.3729L9.33981 21.5016H12.5423L13.6711 20.3729L14.6292 18.9423V11.7235L13.3429 9.79413L12.5423 10.2798Z" fill="#6366F1"/>
<path d="M15.1147 19.4147L17.1885 17.3278V15.2541L15.1147 17.0128V19.4147Z" fill="#6366F1"/>
<path d="M4.68066 17.3278L6.76754 19.4147V17.0128L4.68066 15.2541V17.3278Z" fill="#6366F1"/>
<path d="M9.81234 9.6366H10.6261V0.501602H8.85422L7.58109 3.53348L1.79297 3.06098L2.76422 7.07723L9.65484 9.6366H9.81234Z" fill="#6366F1"/>
<path d="M14.3013 3.53348L13.0282 0.501602H11.2563V9.6891H12.3326L19.2232 7.0641L20.2076 3.1266L14.3013 3.53348Z" fill="#6366F1"/>
<path d="M18.0024 2.74598L15.7449 0.501602H13.5005L14.6292 3.06098L18.0024 2.74598Z" fill="#6366F1"/>
<path d="M8.36863 0.501602H6.12426L3.87988 2.74598L7.25301 3.06098L8.36863 0.501602Z" fill="#6366F1"/>
</g>
<defs>
<clipPath id="clip0_17_7424">
<rect width="21" height="21" fill="white" transform="translate(0.5 0.501602)"/>
</clipPath>
</defs>
</svg>
