<svg width="22" height="22" viewBox="0 0 22 22" fill="none" xmlns="http://www.w3.org/2000/svg">
<g clip-path="url(#clip0_17_7418)">
<path d="M21.4576 8.54842C21.4096 8.39608 21.3196 8.26039 21.1979 8.15695C21.0762 8.05351 20.9278 7.98653 20.7697 7.96369L14.5556 7.05794L11.7696 1.42855C11.6903 1.29552 11.5778 1.18537 11.4431 1.10887C11.3085 1.03237 11.1563 0.992157 11.0014 0.992157C10.8465 0.992157 10.6943 1.03237 10.5597 1.10887C10.425 1.18537 10.3125 1.29552 10.2332 1.42855L7.44721 7.05794L1.2331 7.96369C1.07502 7.98653 0.926601 8.05351 0.804907 8.15695C0.683213 8.26039 0.593188 8.39608 0.545187 8.54842C0.493943 8.70019 0.486111 8.86325 0.522574 9.01923C0.559037 9.17521 0.638346 9.31791 0.75156 9.43123L5.26883 13.8109L4.20257 20.0021C4.17555 20.1615 4.19341 20.3253 4.25415 20.4751C4.31489 20.625 4.41613 20.7549 4.54653 20.8505C4.67714 20.9436 4.83117 20.9983 4.99122 21.0084C5.15128 21.0186 5.31098 20.9837 5.45228 20.9079L11.0014 17.9842L16.562 20.9079C16.685 20.9753 16.823 21.0108 16.9633 21.011C17.1437 21.009 17.3193 20.9531 17.4678 20.8505C17.5982 20.7549 17.6994 20.625 17.7601 20.4751C17.8209 20.3253 17.8387 20.1615 17.8117 20.0021L16.734 13.8109L21.2398 9.43123C21.355 9.31914 21.4365 9.17702 21.475 9.02097C21.5135 8.86493 21.5075 8.70122 21.4576 8.54842Z" fill="#6366F1"/>
</g>
<defs>
<clipPath id="clip0_17_7418">
<rect width="21" height="21" fill="white" transform="translate(0.5 0.501602)"/>
</clipPath>
</defs>
</svg>
