<svg width="22" height="22" viewBox="0 0 22 22" fill="none" xmlns="http://www.w3.org/2000/svg">
<path d="M7.18182 10.0471H3.36364C2.60415 10.0471 1.87578 9.74535 1.33874 9.20832C0.801704 8.67128 0.5 7.9429 0.5 7.18342V3.36524C0.5 2.60576 0.801704 1.87738 1.33874 1.34034C1.87578 0.803306 2.60415 0.501602 3.36364 0.501602H7.18182C7.9413 0.501602 8.66968 0.803306 9.20672 1.34034C9.74375 1.87738 10.0455 2.60576 10.0455 3.36524V7.18342C10.0455 7.9429 9.74375 8.67128 9.20672 9.20832C8.66968 9.74535 7.9413 10.0471 7.18182 10.0471ZM3.36364 2.41069C3.1115 2.41399 2.87062 2.51562 2.69232 2.69392C2.51401 2.87222 2.41239 3.1131 2.40909 3.36524V7.18342C2.41239 7.43556 2.51401 7.67644 2.69232 7.85474C2.87062 8.03304 3.1115 8.13467 3.36364 8.13797H7.18182C7.43395 8.13467 7.67484 8.03304 7.85314 7.85474C8.03144 7.67644 8.13307 7.43556 8.13636 7.18342V3.36524C8.13307 3.1131 8.03144 2.87222 7.85314 2.69392C7.67484 2.51562 7.43395 2.41399 7.18182 2.41069H3.36364Z" fill="#6366F1"/>
<path d="M7.18182 21.5016H3.36364C2.60415 21.5016 1.87578 21.1999 1.33874 20.6629C0.801704 20.1258 0.5 19.3974 0.5 18.638V14.8198C0.5 14.0603 0.801704 13.3319 1.33874 12.7949C1.87578 12.2579 2.60415 11.9561 3.36364 11.9561H7.18182C7.9413 11.9561 8.66968 12.2579 9.20672 12.7949C9.74375 13.3319 10.0455 14.0603 10.0455 14.8198V18.638C10.0455 19.3974 9.74375 20.1258 9.20672 20.6629C8.66968 21.1999 7.9413 21.5016 7.18182 21.5016ZM3.36364 13.8652C3.1115 13.8685 2.87062 13.9702 2.69232 14.1485C2.51401 14.3268 2.41239 14.5676 2.40909 14.8198V18.638C2.41239 18.8901 2.51401 19.131 2.69232 19.3093C2.87062 19.4876 3.1115 19.5892 3.36364 19.5925H7.18182C7.43395 19.5892 7.67484 19.4876 7.85314 19.3093C8.03144 19.131 8.13307 18.8901 8.13636 18.638V14.8198C8.13307 14.5676 8.03144 14.3268 7.85314 14.1485C7.67484 13.9702 7.43395 13.8685 7.18182 13.8652H3.36364Z" fill="#6366F1"/>
<path d="M18.6364 10.0471H14.8182C14.0587 10.0471 13.3304 9.74535 12.7933 9.20832C12.2563 8.67128 11.9546 7.9429 11.9546 7.18342V3.36524C11.9546 2.60576 12.2563 1.87738 12.7933 1.34034C13.3304 0.803306 14.0587 0.501602 14.8182 0.501602H18.6364C19.3959 0.501602 20.1243 0.803306 20.6613 1.34034C21.1983 1.87738 21.5 2.60576 21.5 3.36524V7.18342C21.5 7.9429 21.1983 8.67128 20.6613 9.20832C20.1243 9.74535 19.3959 10.0471 18.6364 10.0471ZM14.8182 2.41069C14.5661 2.41399 14.3252 2.51562 14.1469 2.69392C13.9686 2.87222 13.867 3.1131 13.8637 3.36524V7.18342C13.867 7.43556 13.9686 7.67644 14.1469 7.85474C14.3252 8.03304 14.5661 8.13467 14.8182 8.13797H18.6364C18.8885 8.13467 19.1294 8.03304 19.3077 7.85474C19.486 7.67644 19.5877 7.43556 19.591 7.18342V3.36524C19.5877 3.1131 19.486 2.87222 19.3077 2.69392C19.1294 2.51562 18.8885 2.41399 18.6364 2.41069H14.8182Z" fill="#6366F1"/>
<path d="M18.6364 21.5016H14.8182C14.0587 21.5016 13.3304 21.1999 12.7933 20.6629C12.2563 20.1258 11.9546 19.3974 11.9546 18.638V14.8198C11.9546 14.0603 12.2563 13.3319 12.7933 12.7949C13.3304 12.2579 14.0587 11.9561 14.8182 11.9561H18.6364C19.3959 11.9561 20.1243 12.2579 20.6613 12.7949C21.1983 13.3319 21.5 14.0603 21.5 14.8198V18.638C21.5 19.3974 21.1983 20.1258 20.6613 20.6629C20.1243 21.1999 19.3959 21.5016 18.6364 21.5016ZM14.8182 13.8652C14.5661 13.8685 14.3252 13.9702 14.1469 14.1485C13.9686 14.3268 13.867 14.5676 13.8637 14.8198V18.638C13.867 18.8901 13.9686 19.131 14.1469 19.3093C14.3252 19.4876 14.5661 19.5892 14.8182 19.5925H18.6364C18.8885 19.5892 19.1294 19.4876 19.3077 19.3093C19.486 19.131 19.5877 18.8901 19.591 18.638V14.8198C19.5877 14.5676 19.486 14.3268 19.3077 14.1485C19.1294 13.9702 18.8885 13.8685 18.6364 13.8652H14.8182Z" fill="#6366F1"/>
</svg>
