<svg width="22" height="22" viewBox="0 0 22 22" fill="none" xmlns="http://www.w3.org/2000/svg">
<g clip-path="url(#clip0_17_7458)">
<path d="M11.0001 11.3403C9.99522 11.3403 9.01293 11.0423 8.17743 10.484C7.34192 9.92577 6.69072 9.13228 6.30618 8.20391C5.92164 7.27554 5.82102 6.254 6.01706 5.26845C6.2131 4.2829 6.69698 3.37762 7.40752 2.66707C8.11806 1.95653 9.02335 1.47265 10.0089 1.27661C10.9944 1.08057 12.016 1.18119 12.9444 1.56573C13.8727 1.95027 14.6662 2.60147 15.2245 3.43698C15.7828 4.27249 16.0807 5.25478 16.0807 6.25963C16.0807 7.6071 15.5454 8.89939 14.5926 9.85219C13.6398 10.805 12.3476 11.3403 11.0001 11.3403ZM11.0001 3.21125C10.3972 3.21125 9.80779 3.39003 9.30649 3.72499C8.80518 4.05995 8.41446 4.53605 8.18374 5.09307C7.95301 5.65009 7.89265 6.26301 8.01027 6.85434C8.12789 7.44567 8.41822 7.98884 8.84455 8.41517C9.27087 8.84149 9.81404 9.13182 10.4054 9.24945C10.9967 9.36707 11.6096 9.3067 12.1666 9.07597C12.7237 8.84525 13.1998 8.45453 13.5347 7.95323C13.8697 7.45192 14.0485 6.86255 14.0485 6.25963C14.0485 5.45115 13.7273 4.67578 13.1556 4.1041C12.5839 3.53241 11.8086 3.21125 11.0001 3.21125Z" fill="#6366F1"/>
<path d="M20.4839 20.8241C20.2155 20.8206 19.959 20.7124 19.7692 20.5226C19.5794 20.3328 19.4713 20.0764 19.4677 19.808C19.4677 17.1661 18.0316 15.4048 11 15.4048C3.96839 15.4048 2.53226 17.1661 2.53226 19.808C2.53226 20.0775 2.4252 20.336 2.23464 20.5265C2.04408 20.7171 1.78562 20.8241 1.51613 20.8241C1.24663 20.8241 0.988178 20.7171 0.797617 20.5265C0.607056 20.336 0.5 20.0775 0.5 19.808C0.5 13.3725 7.85677 13.3725 11 13.3725C14.1432 13.3725 21.5 13.3725 21.5 19.808C21.4965 20.0764 21.3883 20.3328 21.1985 20.5226C21.0087 20.7124 20.7523 20.8206 20.4839 20.8241Z" fill="#6366F1"/>
</g>
<defs>
<clipPath id="clip0_17_7458">
<rect width="21" height="21" fill="white" transform="translate(0.5 0.501587)"/>
</clipPath>
</defs>
</svg>
