<svg width="22" height="22" viewBox="0 0 22 22" fill="none" xmlns="http://www.w3.org/2000/svg">
<g clip-path="url(#clip0_17_7451)">
<path d="M19.3576 5.31164H19.0578V2.61331C19.0546 2.05767 18.8325 1.52569 18.4396 1.13278C18.0467 0.739882 17.5147 0.517758 16.9591 0.51461C16.8639 0.497287 16.7664 0.497287 16.6713 0.51461L2.40009 5.31164H2.26817H2.07629L1.87242 5.3836H1.70452L1.51264 5.49153L1.36873 5.6954L1.20083 5.83931L1.06891 5.95924L0.925002 6.13913C0.886632 6.17354 0.854214 6.21407 0.829061 6.25905C0.784548 6.32839 0.744492 6.40049 0.709135 6.47492L0.63718 6.60684C0.60379 6.69297 0.575753 6.78109 0.553232 6.87068C0.558626 6.91448 0.558626 6.95879 0.553232 7.00259C0.54085 7.13823 0.54085 7.27471 0.553232 7.41034V19.4029C0.555749 19.9444 0.766276 20.4642 1.14127 20.8548C1.51627 21.2455 2.02706 21.477 2.56798 21.5016H19.3576C19.9132 21.4985 20.4452 21.2763 20.8381 20.8834C21.231 20.4905 21.4531 19.9586 21.4563 19.4029V7.41034C21.4531 6.8547 21.231 6.32272 20.8381 5.92981C20.4452 5.53691 19.9132 5.31479 19.3576 5.31164ZM17.055 2.32549C17.1141 2.34727 17.1652 2.38643 17.2016 2.4378C17.2379 2.48918 17.2579 2.55036 17.2589 2.61331V5.31164H8.10855L17.055 2.32549ZM19.6574 19.4029C19.6574 19.4824 19.6258 19.5587 19.5696 19.6149C19.5134 19.6711 19.4371 19.7027 19.3576 19.7027H2.56798C2.48847 19.7027 2.41221 19.6711 2.35598 19.6149C2.29976 19.5587 2.26817 19.4824 2.26817 19.4029V7.41034C2.26817 7.33083 2.29976 7.25457 2.35598 7.19834C2.41221 7.14211 2.48847 7.11053 2.56798 7.11053H19.3576C19.4371 7.11053 19.5134 7.14211 19.5696 7.19834C19.6258 7.25457 19.6574 7.33083 19.6574 7.41034V19.4029Z" fill="#6366F1"/>
<path d="M16.3594 14.9057C17.1873 14.9057 17.8585 14.2346 17.8585 13.4067C17.8585 12.5788 17.1873 11.9076 16.3594 11.9076C15.5315 11.9076 14.8604 12.5788 14.8604 13.4067C14.8604 14.2346 15.5315 14.9057 16.3594 14.9057Z" fill="#6366F1"/>
</g>
<defs>
<clipPath id="clip0_17_7451">
<rect width="21" height="21" fill="white" transform="translate(0.5 0.501587)"/>
</clipPath>
</defs>
</svg>
